<svg width="60" height="60" viewBox="0 0 60 60" fill="none" xmlns="http://www.w3.org/2000/svg">
<path fill-rule="evenodd" clip-rule="evenodd" d="M30 0C13.4314 0 0 13.4314 0 30C0 46.5686 13.4314 60 30 60C46.5686 60 60 46.5686 60 30C60 13.4314 46.5686 0 30 0ZM14.4021 24.8473H21.2007V45.2744H14.4021V24.8473ZM21.6484 18.5283C21.6042 16.5255 20.1721 15 17.8462 15C15.5205 15 14 16.5255 14 18.5283C14 20.4897 15.4756 22.0592 17.7581 22.0592H17.8015C20.1721 22.0592 21.6484 20.4897 21.6484 18.5283ZM37.8914 24.3677C42.3652 24.3677 45.7192 27.2878 45.7192 33.5621L45.719 45.2745H38.9207V34.3459C38.9207 31.601 37.9368 29.7278 35.4756 29.7278C33.5974 29.7278 32.4785 30.9906 31.9873 32.2102C31.8074 32.6473 31.7634 33.2563 31.7634 33.8668V45.275H24.9639C24.9639 45.275 25.0535 26.7646 24.9639 24.8479H31.7634V27.7412C32.6658 26.3503 34.2817 24.3677 37.8914 24.3677Z" fill="white"/>
</svg>
