<svg width="60" height="60" viewBox="0 0 60 60" fill="none" xmlns="http://www.w3.org/2000/svg">
<path fill-rule="evenodd" clip-rule="evenodd" d="M30 0C13.4314 0 0 13.4314 0 30C0 46.5686 13.4314 60 30 60C46.5686 60 60 46.5686 60 30C60 13.4314 46.5686 0 30 0ZM39.6404 38.5945C44.375 32.504 46.8223 27.7067 46.9824 24.2025C47.1963 19.5135 45.4514 17.1149 41.7527 17.0065C36.7634 16.8458 33.3833 19.66 31.6138 25.4541C32.5278 25.0623 33.4165 24.8638 34.2786 24.8638C36.1091 24.8638 36.917 25.8933 36.7017 27.947C36.5928 29.1917 35.7849 31.0024 34.2786 33.3821C32.769 35.7633 31.6365 36.953 30.8838 36.953C29.9136 36.953 29.0249 35.1202 28.2163 31.4508C27.9446 30.3744 27.4602 27.624 26.7607 23.2012C26.1135 19.1025 24.3889 17.1879 21.5886 17.4574C20.4028 17.5657 18.6228 18.6429 16.2532 20.6896C14.5291 22.2526 12.7769 23.8135 11 25.374L12.6929 27.5552C14.3066 26.4268 15.249 25.8601 15.5183 25.8601C16.7546 25.8601 17.9097 27.7985 18.9873 31.6709L20.7729 38.2191L21.8923 42.325C23.3433 46.1995 25.1189 48.1353 27.2183 48.1353C30.6045 48.1353 34.7458 44.954 39.6404 38.5945Z" fill="white"/>
</svg>
