<svg width="60" height="60" viewBox="0 0 60 60" fill="none" xmlns="http://www.w3.org/2000/svg">
<path fill-rule="evenodd" clip-rule="evenodd" d="M30 0C13.4314 0 0 13.4314 0 30C0 46.5686 13.4314 60 30 60C46.5686 60 60 46.5686 60 30C60 13.4314 46.5686 0 30 0ZM42.502 19.6866C43.8789 20.0645 44.9634 21.1777 45.3313 22.5916C46 25.1538 46 30.5 46 30.5C46 30.5 46 35.8461 45.3313 38.4084C44.9634 39.8223 43.8789 40.9355 42.502 41.3135C40.0068 42 30 42 30 42C30 42 19.9932 42 17.4978 41.3135C16.1208 40.9355 15.0366 39.8223 14.6685 38.4084C14 35.8461 14 30.5 14 30.5C14 30.5 14 25.1538 14.6685 22.5916C15.0366 21.1777 16.1208 20.0645 17.4978 19.6866C19.9932 19 30 19 30 19C30 19 40.0068 19 42.502 19.6866Z" fill="white"/>
<path fill-rule="evenodd" clip-rule="evenodd" d="M27 36V26L35 31.0002L27 36Z" fill="white"/>
</svg>
